<svg width="184" height="38" fill="none" xmlns="http://www.w3.org/2000/svg"><path d="M7.63 25.433H6.134l.748-14.168.748 14.168ZM8.278 37.6h6.134L11.071.35H3.09L0 37.6h5.436l.349-6.71h2.144l.35 6.71ZM23.396 38c4.538 0 6.633-2.904 6.633-6.158V.35h-6.433v30.74c0 .652-.25.952-.698.952-.45 0-.649-.3-.649-.951V.35h-6.483v31.49c0 3.305 1.796 6.159 6.633 6.159h.997ZM34.75 37.6h6.233V6.057h2.843V.35H31.907v5.708h2.843v31.541ZM59.885 7.36c0-4.456-1.995-7.36-6.733-7.36h-.997c-4.738 0-6.732 2.754-6.732 7.36v23.38c0 4.607 2.343 7.21 6.732 7.21h1.047c4.14 0 6.683-2.553 6.683-7.21V7.36ZM53.402 31.29c0 .651-.25 1.001-.748 1.001-.45 0-.699-.35-.699-1V6.658c0-.751.25-1.102.699-1.102.498 0 .748.35.748 1.102V31.29ZM61.808 19.726v5.707h6.284v-5.707h-6.284ZM70.014 37.6h5.187V16.771L77.096 37.6h2.244l1.845-20.828V37.6h5.286V.35h-7.032l-1.097 18.074L77.245.35h-7.23V37.6ZM95.528 25.433h-1.496l.748-14.168.748 14.168Zm.648 12.166h6.134L98.969.35h-7.98L87.899 37.6h5.435l.35-6.71h2.144l.349 6.71ZM108.605 37.95c2.144 0 3.441-1.352 4.288-2.704.2.451.499 1.803.649 2.353h4.238V15.671h-7.28v4.856h1.296v11.115c0 .75-.299 1.151-.897 1.151-.599 0-.898-.4-.898-1.151V6.208c0-.65.249-.951.698-.951.598 0 .748.35.748.951v8.11h6.084v-8.36c0-3.004-1.446-5.958-6.483-5.958h-.848c-4.987 0-6.682 3.004-6.682 6.458v25.334c0 3.304 1.596 6.158 4.937 6.158h.15ZM126.84 25.433h-1.496l.748-14.168.748 14.168Zm.648 12.166h6.134L130.281.35h-7.979L119.21 37.6h5.436l.349-6.71h2.144l.349 6.71ZM135.123.35v5.658h4.738l-4.937 26.385v5.206h12.068v-5.707h-5.286l5.037-26.335V.35h-11.62ZM155.164.35h-6.334V37.6h6.334V.35ZM157.181.35V37.6h5.287l-.05-22.33 2.942 22.33h5.835V.35h-5.237l.05 20.177L163.565.35h-6.384ZM173.178.35V37.6H184v-5.808h-4.638V21.028h3.79V15.12h-3.79V6.058h4.488V.35h-10.672Z" fill="#E1FD2C"/></svg>